<svg xmlns="http://www.w3.org/2000/svg" viewBox="0 0 1224 1130">
	<path id="name" fill-rule="evenodd" class="s0" d="m84.4 528.2l-4.8-46.8h-32l-5.6 46.8h-42l40-329.2h50.4l37.6 329.2h-43.6zm-9.6-86.4c-2.13-21.6-4.13-43.2-6-64.8c-1.87-21.6-3.6-43.73-5.2-66.4c-3.2 44.8-7.2 88.53-12 131.2h23.2zm86.8 86.4v-329.2h43.6v285.6h48.8v43.6h-92.4zm125.6 0v-329.2h90.4v43.6h-46.8v96h29.6v43.6h-29.6v102.4h48.8v43.6h-92.4zm205.2 0c-3.73-20-6.87-36.87-9.4-50.6c-2.53-13.73-4.6-25.53-6.2-35.4c-1.6-9.87-2.93-18.33-4-25.4c-1.07-7.07-2-13.8-2.8-20.2c-0.8 6.4-1.67 13.13-2.6 20.2c-0.93 7.07-2.2 15.47-3.8 25.2c-1.6 9.73-3.67 21.53-6.2 35.4c-2.53 13.87-5.8 30.8-9.8 50.8h-44.4l42.4-176.4l-34.8-152.8h46.4c2.67 15.2 4.87 28.2 6.6 39c1.73 10.8 3.13 20.13 4.2 28c1.07 7.87 1.87 14.67 2.4 20.4c0.53 5.73 1.07 11.13 1.6 16.2c0.53-5.07 1.13-10.47 1.8-16.2c0.67-5.73 1.6-12.47 2.8-20.2c1.2-7.73 2.6-17 4.2-27.8c1.6-10.8 3.6-23.93 6-39.4h45.2l-36.4 151.6l43.6 177.6h-46.8zm-404.8 400c-6.4-26.67-11.6-48.73-15.6-66.2c-4-17.47-7.27-31.93-9.8-43.4c-2.53-11.47-4.53-20.73-6-27.8c-1.47-7.07-2.73-13.53-3.8-19.4c0.53 12 0.87 24.67 1 38c0.13 13.33 0.2 29.2 0.2 47.6v71.2h-43.6v-329.2h43.6v89.6c0 6.93-0.07 13.2-0.2 18.8c-0.13 5.6-0.27 10.8-0.4 15.6c-0.13 4.8-0.33 9.47-0.6 14c0.8-4.53 1.87-9.67 3.2-15.4c1.33-5.73 3.2-13.6 5.6-23.6c2.4-10 5.67-22.87 9.8-38.6c4.13-15.73 9.4-35.87 15.8-60.4h46.4l-43.6 146.8l47.6 182.4h-49.6zm80.4 0v-329.2h43.6v329.2h-43.6zm162.4 0c-6.67-31.73-12.2-58.4-16.6-80c-4.4-21.6-8.13-39.87-11.2-54.8c-3.07-14.93-5.53-27.47-7.4-37.6c-1.87-10.13-3.6-19.87-5.2-29.2c0.53 19.47 0.87 38.8 1 58c0.13 19.2 0.2 38.8 0.2 58.8v84.8h-36.4v-329.2h50c5.6 34.67 10.2 63.33 13.8 86c3.6 22.67 6.53 41.47 8.8 56.4c2.27 14.93 4.07 27.13 5.4 36.6c1.33 9.47 2.67 18.47 4 27c-0.53-17.6-0.87-34.93-1-52c-0.13-17.07-0.2-34.13-0.2-51.2v-102.8h36.4v329.2h-41.6zm84 0v-329.2h90.4v43.6h-46.8v96h29.6v43.6h-29.6v102.4h48.8v43.6h-92.4zm118-42.8c1.42 0.23 2.85 0.42 4.28 0.59c1.43 0.16 2.86 0.3 4.3 0.4c1.44 0.1 2.87 0.17 4.31 0.21c1.44 0.04 2.88 0.04 4.32 0.01c7.2 0 10.8-4.8 10.8-14.4v-273.2h43.6v273.2c0 20.27-4.6 35.07-13.8 44.4c-9.2 9.33-22.73 14-40.6 14c-0.75 0-1.5-0.01-2.26-0.03c-0.75-0.02-1.5-0.06-2.25-0.11c-0.75-0.05-1.5-0.11-2.25-0.19c-0.75-0.08-1.5-0.17-2.24-0.27c-2.8-0.4-5.53-0.87-8.2-1.4v-43.2zm182.4 42.8l-4.8-46.8h-32l-5.6 46.8h-42l40-329.2h50.4l37.6 329.2h-43.6zm-9.6-86.4c-2.13-21.6-4.13-43.2-6-64.8c-1.87-21.6-3.6-43.73-5.2-66.4c-3.2 44.8-7.2 88.53-12 131.2h23.2zm152.8 86.4c-2.13-25.07-4.4-49.53-6.8-73.4c-2.4-23.87-5.2-48.33-8.4-73.4h-7.2v146.8h-43.6v-329.2h52c20 0 34.8 4.47 44.4 13.4c9.6 8.93 14.4 24.2 14.4 45.8v68c0 12.8-1.47 22.73-4.4 29.8c-0.71 1.73-1.55 3.39-2.53 4.98c-0.98 1.59-2.08 3.1-3.3 4.5c-1.22 1.41-2.56 2.72-3.99 3.91c-1.44 1.19-2.97 2.26-4.58 3.21c4.27 26.67 8.13 52.8 11.6 78.4c3.47 25.6 6.8 51.33 10 77.2h-47.6zm0.8-270c0-10.4-4.93-15.6-14.8-15.6h-8.4v99.2h8.8c9.6 0 14.4-5.07 14.4-15.2v-68.4zm156.8 270l-4.8-46.8h-32l-5.6 46.8h-42l40-329.2h50.4l37.6 329.2h-43.6zm-9.6-86.4c-2.13-21.6-4.13-43.2-6-64.8c-1.87-21.6-3.6-43.73-5.2-66.4c-3.2 44.8-7.2 88.53-12 131.2h23.2z" />
	<path id="title" fill-rule="evenodd" class="s0" d="m120.4 527.2c-2.67-27.2-4.93-50.8-6.8-70.8c-1.87-20-3.47-37.2-4.8-51.6c-1.33-14.4-2.47-26.4-3.4-36c-0.93-9.6-1.6-17.73-2-24.4c-0.4-6.67-0.67-12.2-0.8-16.6c-0.13-4.4-0.2-8.6-0.2-12.6c-0.27 4-0.6 8.2-1 12.6c-0.4 4.4-0.87 9.93-1.4 16.6c-0.53 6.67-1.27 14.8-2.2 24.4c-0.93 9.6-2.07 21.6-3.4 36c-1.33 14.4-3 31.6-5 51.6c-2 20-4.33 43.6-7 70.8h-50.8l-31.6-329.2h45.6c2.13 28.8 3.93 53.8 5.4 75c1.47 21.2 2.73 39.53 3.8 55c1.07 15.47 2 28.47 2.8 39c0.8 10.53 1.4 19.47 1.8 26.8c0.4 7.33 0.73 13.6 1 18.8c0.27 5.2 0.53 10.2 0.8 15c0.27-4.8 0.6-9.8 1-15c0.4-5.2 0.93-11.47 1.6-18.8c0.67-7.33 1.47-16.27 2.4-26.8c0.93-10.53 2.27-23.53 4-39c1.73-15.47 3.73-33.8 6-55c2.27-21.2 5-46.2 8.2-75h38.8c2.67 28.8 5 53.8 7 75c2 21.2 3.67 39.53 5 55c1.33 15.47 2.47 28.47 3.4 39c0.93 10.53 1.67 19.47 2.2 26.8c0.53 7.33 1 13.6 1.4 18.8c0.4 5.2 0.73 10.2 1 15c0.27-4.8 0.53-9.8 0.8-15c0.27-5.2 0.67-11.47 1.2-18.8c0.53-7.33 1.2-16.27 2-26.8c0.8-10.53 1.87-23.53 3.2-39c1.33-15.47 2.93-33.8 4.8-55c1.87-21.2 4.13-46.2 6.8-75h45.6l-36.8 329.2h-50.4zm120.4 0v-329.2h90.4v43.6h-46.8v96h29.6v43.6h-29.6v102.4h48.8v43.6h-92.4zm128.8 0v-329.2h54.4c18.4 0 31.4 4.67 39 14c7.6 9.33 11.4 24 11.4 44v68c0.03 1.76-0.03 3.52-0.18 5.28c-0.15 1.76-0.4 3.5-0.73 5.23c-0.34 1.73-0.76 3.44-1.28 5.13c-0.52 1.68-1.12 3.34-1.81 4.96c-2.67 6-6.4 10.07-11.2 12.2c5.07 1.6 9.53 5.13 13.4 10.6c3.87 5.47 5.8 12.87 5.8 22.2v82c0 19.47-4.47 33.6-13.4 42.4c-8.93 8.8-22.6 13.2-41 13.2h-54.4zm64.4-136.4c0-8.27-3.2-12.4-9.6-12.4h-11.2v105.2h10.8c6.67 0 10-4.13 10-12.4v-80.4zm0-136.8c0-8.27-3.33-12.4-10-12.4h-10.8v98.8h11.2c6.4 0 9.6-4.13 9.6-12.4v-74zm-424 673.2v-329.2h53.2c17.87 0 31.27 5 40.2 15c8.93 10 13.4 23.8 13.4 41.4v216.8c0 37.33-17.87 56-53.6 56h-53.2zm63.6-273.2c0-8.27-3.47-12.4-10.4-12.4h-9.6v242h9.6c6.93 0 10.4-4.13 10.4-12.4v-217.2zm84 273.2v-329.2h90.4v43.6h-46.8v96h29.6v43.6h-29.6v102.4h48.8v43.6h-92.4zm153.2 0l-34.4-329.2h45.2c3.47 40.8 6.33 74.8 8.6 102c2.27 27.2 4.13 50.2 5.6 69c1.47 18.8 2.6 34.53 3.4 47.2c0.8 12.67 1.47 24.6 2 35.8c0.8-11.2 1.6-23.07 2.4-35.6c0.8-12.53 2-28.2 3.6-47c1.6-18.8 3.6-41.87 6-69.2c2.4-27.33 5.6-61.4 9.6-102.2h43.2l-37.2 329.2h-58zm128.4 0v-329.2h90.4v43.6h-46.8v96h29.6v43.6h-29.6v102.4h48.8v43.6h-92.4zm128.8 0v-329.2h43.6v285.6h48.8v43.6h-92.4zm119.6-276.8c0-37.33 17.87-56 53.6-56c35.73 0 53.6 18.67 53.6 56v224.4c0 37.33-17.87 56-53.6 56c-35.73 0-53.6-18.67-53.6-56v-224.4zm63.6 0c0-8.27-3.33-12.4-10-12.4c-6.67 0-10 4.13-10 12.4v224.4c0 8.27 3.33 12.4 10 12.4c6.67 0 10-4.13 10-12.4v-224.4zm84.4 276.8v-329.2h53.2c20 0 34.67 4.73 44 14.2c9.33 9.47 14 24.6 14 45.4v54c0 20.8-4.6 35.87-13.8 45.2c-9.2 9.33-23.8 14-43.8 14h-10v156.4h-43.6zm68.4-270c0-10.4-5.07-15.6-15.2-15.6h-9.6v86.8h10c9.87 0 14.8-5.07 14.8-15.2l0-56zm77.6 270v-329.2h90.4v43.6h-46.8v96h29.6v43.6h-29.6v102.4h48.8v43.6h-92.4zm194.8 0c-2.13-25.07-4.4-49.53-6.8-73.4c-2.4-23.87-5.2-48.33-8.4-73.4h-7.2v146.8h-43.6v-329.2h52c20 0 34.8 4.47 44.4 13.4c9.6 8.93 14.4 24.2 14.4 45.8v68c0 12.8-1.47 22.73-4.4 29.8c-0.71 1.73-1.55 3.39-2.53 4.98c-0.98 1.59-2.08 3.1-3.3 4.5c-1.22 1.41-2.56 2.72-3.99 3.91c-1.44 1.19-2.97 2.26-4.58 3.21c4.27 26.67 8.13 52.8 11.6 78.4c3.47 25.6 6.8 51.33 10 77.2h-47.6zm0.8-270c0-10.4-4.93-15.6-14.8-15.6h-8.4v99.2h8.8c9.6 0 14.4-5.07 14.4-15.2v-68.4z" />
	<path id="fun" fill-rule="evenodd" class="s0" d="m10 329.2v-329.2h90.4v43.6h-46.8v96h29.6v43.6h-29.6v102.4h48.8v43.6h-92.4zm203.2 0l-4.8-46.8h-32l-5.6 46.8h-42l40-329.2h50.4l37.6 329.2h-43.6zm-9.6-86.4c-2.13-21.6-4.13-43.2-6-64.8c-1.87-21.6-3.6-43.73-5.2-66.4c-3.2 44.8-7.2 88.53-12 131.2h23.2zm92.8 86.4v-285.6h-32v-43.6h107.2v43.6h-31.6v285.6h-43.6zm-286.4 400v-329.2h53.2c20 0 34.67 4.73 44 14.2c9.33 9.47 14 24.6 14 45.4v54c0 20.8-4.6 35.87-13.8 45.2c-9.2 9.33-23.8 14-43.8 14h-10v156.4h-43.6zm68.4-270c0-10.4-5.07-15.6-15.2-15.6h-9.6v86.8h10c9.87 0 14.8-5.07 14.8-15.2v-56zm77.6 270v-329.2h43.6v285.6h48.8v43.6h-92.4zm200 0l-4.8-46.8h-32l-5.6 46.8h-42l40-329.2h50.4l37.6 329.2h-43.6zm-9.6-86.4c-2.13-21.6-4.13-43.2-6-64.8c-1.87-21.6-3.6-43.73-5.2-66.4c-3.2 44.8-7.2 88.53-12 131.2h23.2zm97.6 86.4v-140.4l-42-188.8h46c3.47 20.27 6.33 37.13 8.6 50.6c2.27 13.47 4.07 24.8 5.4 34c1.33 9.2 2.47 16.8 3.4 22.8c0.93 6 1.8 11.8 2.6 17.4c0.8-5.6 1.67-11.4 2.6-17.4c0.93-6 2.13-13.6 3.6-22.8c1.47-9.2 3.4-20.53 5.8-34c2.4-13.47 5.47-30.33 9.2-50.6h42.4l-43.6 188.8v140.4h-44zm-412 400v-285.6h-32v-43.6h107.2v43.6h-31.6v285.6h-43.6zm174.4 0c-2.13-25.07-4.4-49.53-6.8-73.4c-2.4-23.87-5.2-48.33-8.4-73.4h-7.2v146.8h-43.6v-329.2h52c20 0 34.8 4.47 44.4 13.4c9.6 8.93 14.4 24.2 14.4 45.8v68c0 12.8-1.47 22.73-4.4 29.8c-0.71 1.73-1.55 3.39-2.53 4.98c-0.98 1.59-2.08 3.1-3.3 4.5c-1.22 1.41-2.56 2.72-3.99 3.91c-1.44 1.19-2.97 2.26-4.58 3.21c4.27 26.67 8.13 52.8 11.6 78.4c3.47 25.6 6.8 51.33 10 77.2h-47.6zm0.8-270c0-10.4-4.93-15.6-14.8-15.6h-8.4v99.2h8.8c9.6 0 14.4-5.07 14.4-15.2v-68.4zm156.8 270l-4.8-46.8h-32l-5.6 46.8h-42l40-329.2h50.4l37.6 329.2h-43.6zm-9.6-86.4c-2.13-21.6-4.13-43.2-6-64.8c-1.87-21.6-3.6-43.73-5.2-66.4c-3.2 44.8-7.2 88.53-12 131.2l23.2 0zm101.6 86.4l-34.4-329.2h45.2c3.47 40.8 6.33 74.8 8.6 102c2.27 27.2 4.13 50.2 5.6 69c1.47 18.8 2.6 34.53 3.4 47.2c0.8 12.67 1.47 24.6 2 35.8c0.8-11.2 1.6-23.07 2.4-35.6c0.8-12.53 2-28.2 3.6-47c1.6-18.8 3.6-41.87 6-69.2c2.4-27.33 5.6-61.4 9.6-102.2h43.2l-37.2 329.2h-58zm128.4 0v-329.2h90.4v43.6h-46.8v96h29.6v43.6h-29.6v102.4h48.8v43.6h-92.4zm128.8 0v-329.2h43.6v285.6h48.8v43.6h-92.4z" />
</svg>