<svg xmlns="http://www.w3.org/2000/svg" viewBox="0 0 1380.386 505.333"><g data-name="Group 1"><path d="M270.714 0C171.452 0 0 45.119 0 261.69c0 135.358 108.286 243.643 270.714 243.643 135.357 0 234.619-90.238 351.929-201.231C234.619 595.571 72.19 369.976 72.19 261.69c0-180.476 162.429-198.524 198.524-198.524 153.4 0 243.643 72.19 557.671 356.44C577.524 153.4 415.1 0 270.714 0Z"/><path data-name="logo-small" d="M1109.672 505.333c99.262 0 270.714-45.119 270.714-261.69C1380.386 108.285 1272.1 0 1109.672 0 974.315 0 875.053 90.238 757.743 201.231c388.024-291.469 550.453-65.874 550.453 42.412 0 180.476-162.429 198.524-198.524 198.524-153.4 0-243.643-72.19-557.671-356.44 250.861 266.206 413.285 419.606 557.671 419.606Z"/></g></svg>