<?xml version="1.0" standalone="no"?>
<!DOCTYPE svg PUBLIC "-//W3C//DTD SVG 20010904//EN"
 "http://www.w3.org/TR/2001/REC-SVG-20010904/DTD/svg10.dtd">
<svg version="1.0" xmlns="http://www.w3.org/2000/svg"
 width="1381.000000pt" height="1381.000000pt" viewBox="0 0 1381.000000 1381.000000"
 preserveAspectRatio="xMidYMid meet">
<metadata>
Created by potrace 1.14, written by Peter Selinger 2001-2017
</metadata>
<g transform="translate(0.000000,1381.000000) scale(0.100000,-0.100000)"
fill="#000000" stroke="none">
<path d="M2498 9435 c-2 -1 -43 -6 -93 -9 -49 -4 -101 -9 -115 -11 -14 -2 -45
-7 -70 -10 -25 -3 -67 -10 -95 -16 -27 -5 -63 -11 -80 -14 -16 -2 -45 -8 -62
-14 -18 -5 -33 -8 -33 -6 0 3 -10 1 -23 -4 -13 -5 -40 -12 -60 -15 -60 -10
-355 -111 -467 -160 -352 -156 -655 -382 -865 -646 -33 -41 -63 -76 -67 -78
-5 -2 -8 -10 -8 -17 0 -7 -3 -15 -8 -17 -10 -4 -67 -93 -119 -183 -176 -307
-279 -663 -320 -1100 -10 -102 -10 -503 0 -573 9 -62 24 -162 32 -212 12 -69
47 -197 82 -300 147 -434 421 -814 793 -1099 63 -48 126 -94 140 -101 14 -7
27 -16 30 -19 10 -13 176 -107 258 -146 117 -56 163 -75 282 -118 337 -121
685 -179 1070 -179 134 0 247 6 345 18 22 3 56 7 75 9 19 3 73 12 120 21 47 9
96 18 110 20 14 3 48 11 75 19 28 8 61 16 75 19 14 2 45 12 70 21 25 9 55 19
67 21 33 6 196 70 313 122 231 102 497 254 733 417 87 60 300 218 343 254 17
14 48 40 69 56 41 32 213 173 231 190 9 8 63 56 156 136 58 51 170 151 222
200 34 31 74 68 90 82 211 193 422 397 371 360 -173 -128 -539 -380 -670 -460
-96 -59 -386 -233 -389 -233 -2 0 -46 -24 -97 -53 -431 -242 -961 -451 -1401
-553 -10 -2 -28 -6 -40 -9 -34 -8 -168 -33 -210 -39 -21 -4 -55 -8 -75 -11
-21 -3 -51 -7 -68 -10 -162 -23 -466 -23 -676 0 -35 4 -216 38 -269 50 -14 3
-35 8 -46 10 -12 3 -75 23 -140 46 -212 73 -412 179 -587 311 -166 124 -401
384 -504 555 -27 45 -121 231 -145 288 -22 53 -75 212 -83 250 -30 147 -37
208 -38 335 -3 216 17 400 60 565 8 33 16 65 17 70 2 8 22 76 41 135 14 43 73
176 106 238 70 131 194 301 280 382 133 127 242 210 374 287 49 28 225 114
275 134 108 42 324 105 424 123 173 31 260 39 416 40 164 0 405 -10 433 -19 6
-2 35 -6 62 -9 50 -6 250 -40 293 -51 12 -3 31 -7 42 -9 49 -11 217 -58 235
-65 11 -5 67 -26 125 -46 349 -124 724 -330 1180 -649 121 -84 471 -344 480
-356 3 -4 23 -20 45 -36 22 -16 49 -37 60 -46 11 -9 74 -60 140 -113 66 -54
140 -114 165 -135 25 -20 79 -65 120 -100 103 -85 160 -133 174 -145 6 -6 72
-62 146 -125 140 -119 519 -449 580 -506 19 -17 80 -71 135 -119 97 -85 200
-177 315 -280 31 -27 96 -86 145 -130 49 -44 117 -105 150 -135 33 -30 101
-91 150 -135 49 -44 119 -107 155 -140 79 -72 137 -123 170 -150 25 -20 -11
18 -330 354 -96 101 -192 202 -214 225 -391 416 -1222 1248 -1601 1601 -217
203 -224 209 -365 335 -52 46 -100 89 -106 95 -6 5 -33 29 -60 51 -27 23 -60
52 -74 64 -14 12 -47 40 -75 63 -27 23 -65 56 -85 73 -171 149 -555 439 -780
590 -319 214 -576 355 -869 479 -79 33 -321 115 -321 109 0 -2 -8 -1 -17 5
-21 11 -226 57 -298 66 -27 4 -63 9 -80 12 -35 5 -442 13 -447 8z"/>
<path d="M10899 9435 c-2 -2 -38 -6 -79 -10 -41 -3 -86 -7 -100 -9 -229 -33
-346 -60 -550 -126 -212 -68 -510 -203 -686 -310 -36 -22 -68 -40 -71 -40 -4
0 -322 -211 -378 -250 -38 -27 -213 -158 -231 -174 -11 -8 -71 -57 -135 -109
-64 -51 -123 -100 -131 -108 -8 -8 -33 -29 -56 -47 -44 -36 -51 -42 -152 -130
-79 -70 -149 -132 -215 -194 -27 -25 -61 -56 -74 -67 -83 -72 -437 -411 -411
-394 8 6 58 42 110 80 149 109 412 287 576 390 70 45 341 206 399 238 39 21
86 47 105 58 121 67 434 218 570 274 47 19 99 41 115 48 177 76 625 212 795
240 19 3 42 8 50 10 8 2 33 6 55 9 22 3 57 9 78 12 143 23 243 29 452 29 116
0 242 -3 280 -7 265 -28 569 -118 795 -236 76 -39 277 -165 290 -181 3 -3 25
-22 50 -41 54 -41 122 -104 200 -185 212 -219 385 -516 470 -809 32 -113 37
-134 55 -271 6 -40 5 -268 0 -325 -3 -25 -7 -70 -10 -100 -7 -71 -13 -110 -31
-195 -8 -38 -17 -80 -20 -91 -2 -12 -14 -53 -25 -90 -12 -38 -22 -73 -24 -79
-1 -5 -7 -21 -12 -35 -6 -14 -21 -50 -33 -80 -37 -95 -158 -311 -190 -340 -3
-3 -24 -30 -48 -61 -57 -76 -210 -222 -302 -290 -243 -179 -517 -297 -870
-376 -145 -32 -276 -41 -510 -38 -135 2 -261 6 -280 8 -177 21 -165 20 -235
31 -57 9 -100 17 -135 26 -19 5 -48 11 -65 14 -16 3 -41 8 -55 11 -14 3 -32 8
-40 10 -8 2 -15 4 -15 5 0 1 -10 3 -23 6 -23 4 -262 85 -352 119 -155 58 -499
233 -653 332 -37 23 -70 43 -73 43 -8 0 -89 55 -92 63 -2 4 -7 7 -12 7 -12 0
-393 262 -455 313 -5 4 -71 54 -145 110 -110 82 -414 322 -505 398 -11 10 -92
77 -180 150 -88 74 -162 136 -165 139 -3 3 -34 30 -70 60 -35 30 -76 65 -90
77 -14 12 -35 30 -46 40 -12 10 -48 41 -80 68 -73 63 -475 415 -490 429 -6 6
-42 38 -79 71 -38 33 -73 65 -79 70 -6 6 -49 44 -96 85 -47 41 -87 77 -90 80
-3 3 -45 41 -95 85 -49 44 -99 89 -110 100 -19 18 -139 125 -187 166 -16 15
-96 87 -238 215 -25 23 -70 64 -100 92 -102 93 -116 96 -29 6 47 -49 124 -129
170 -179 872 -923 1758 -1804 2268 -2255 41 -36 81 -72 90 -81 9 -8 68 -60
131 -113 63 -54 131 -112 150 -129 30 -25 216 -176 380 -307 25 -19 79 -60
120 -90 41 -30 77 -57 80 -61 3 -3 21 -17 41 -30 89 -59 164 -113 167 -121 2
-4 8 -8 13 -8 5 0 42 -22 82 -49 80 -54 152 -100 182 -117 11 -6 75 -42 142
-82 104 -60 382 -202 397 -202 3 0 29 -11 58 -24 170 -78 460 -164 643 -191
23 -3 52 -7 65 -10 38 -7 219 -18 295 -18 78 0 314 12 342 17 10 2 43 7 74 10
31 4 65 8 75 10 11 2 39 7 64 11 25 4 56 9 70 12 14 2 63 13 110 24 47 12 98
23 114 26 31 5 288 87 321 102 11 5 70 31 130 58 407 177 742 454 979 808 63
93 205 369 221 425 3 14 10 34 15 45 30 71 89 274 104 361 3 13 7 32 10 42 3
9 7 39 10 65 3 27 8 52 10 56 2 3 7 40 11 81 3 40 8 77 10 80 6 10 18 258 18
375 0 99 -9 269 -18 313 -1 9 -6 42 -10 72 -3 30 -11 71 -15 90 -5 19 -12 50
-15 69 -3 19 -8 37 -10 41 -2 4 -7 21 -10 39 -16 90 -105 323 -177 463 -228
445 -579 793 -1044 1034 -204 106 -475 204 -663 240 -14 3 -28 7 -31 9 -4 2
-20 6 -36 9 -77 14 -233 38 -264 41 -19 3 -55 7 -80 10 -50 7 -526 16 -531 10z"/>
</g>
</svg>
